{
    "accessors": [
        {
            "bufferView": 2,
            "componentType": 5126,
            "count": 258,
            "max": [15.128085136413574, 95.75569152832031, 11.527238845825195],
            "min": [
                -105.92931365966797, -16.250696182250977, -27.584749221801758
            ],
            "type": "VEC3"
        },
        {
            "bufferView": 2,
            "byteOffset": 3096,
            "componentType": 5126,
            "count": 258,
            "max": [0.9975759983062744, 0.9937384128570557, 0.8173591494560242],
            "min": [
                -0.9976978302001953, -0.9937214851379395, -0.8176102638244629
            ],
            "type": "VEC3"
        },
        {
            "bufferView": 3,
            "componentType": 5126,
            "count": 258,
            "max": [
                0.9001941084861755, 0.9547551274299622, 0.9999890923500061, 1.0
            ],
            "min": [
                -0.7686519026756287, -0.795437216758728, -0.7391828298568726,
                1.0
            ],
            "type": "VEC4"
        },
        {
            "bufferView": 1,
            "componentType": 5126,
            "count": 258,
            "max": [0.7737227082252502, 0.7516773343086243],
            "min": [0.001953125, 0.0019806905183941126],
            "type": "VEC2"
        },
        {
            "bufferView": 1,
            "byteOffset": 2064,
            "componentType": 5126,
            "count": 258,
            "max": [0.7737227082252502, 0.7516773343086243],
            "min": [0.001953125, 0.0019806905183941126],
            "type": "VEC2"
        },
        {
            "bufferView": 1,
            "byteOffset": 4128,
            "componentType": 5126,
            "count": 258,
            "max": [0.7737227082252502, 0.7516773343086243],
            "min": [0.001953125, 0.0019806905183941126],
            "type": "VEC2"
        },
        {
            "bufferView": 0,
            "componentType": 5125,
            "count": 888,
            "type": "SCALAR"
        },
        {
            "bufferView": 2,
            "byteOffset": 6192,
            "componentType": 5126,
            "count": 1813,
            "max": [18.258996963500977, 206.9397430419922, 18.25901985168457],
            "min": [
                -18.25900650024414, -133.9051513671875, -18.258989334106445
            ],
            "type": "VEC3"
        },
        {
            "bufferView": 2,
            "byteOffset": 27948,
            "componentType": 5126,
            "count": 1813,
            "max": [0.9820521473884583, 0.7353297472000122, 0.9820521473884583],
            "min": [
                -0.9820521473884583, -0.830511748790741, -0.9820521473884583
            ],
            "type": "VEC3"
        },
        {
            "bufferView": 3,
            "byteOffset": 4128,
            "componentType": 5126,
            "count": 1813,
            "max": [
                0.9999870657920837, 0.9263942837715149, 0.9991579651832581, 1.0
            ],
            "min": [
                -0.999257504940033, -0.9820245504379272, -0.9999382495880127,
                1.0
            ],
            "type": "VEC4"
        },
        {
            "bufferView": 1,
            "byteOffset": 6192,
            "componentType": 5126,
            "count": 1813,
            "max": [0.9815676808357239, 0.9728215336799622],
            "min": [0.0019823843613266945, 0.19167867302894592],
            "type": "VEC2"
        },
        {
            "bufferView": 1,
            "byteOffset": 20696,
            "componentType": 5126,
            "count": 1813,
            "max": [0.9815676808357239, 0.9728215336799622],
            "min": [0.0019823843613266945, 0.19167867302894592],
            "type": "VEC2"
        },
        {
            "bufferView": 1,
            "byteOffset": 35200,
            "componentType": 5126,
            "count": 1813,
            "max": [0.9815676808357239, 0.9728215336799622],
            "min": [0.0019823843613266945, 0.19167867302894592],
            "type": "VEC2"
        },
        {
            "bufferView": 0,
            "byteOffset": 3552,
            "componentType": 5125,
            "count": 7284,
            "type": "SCALAR"
        },
        {
            "bufferView": 2,
            "byteOffset": 49704,
            "componentType": 5126,
            "count": 931,
            "max": [162.4931640625, 326.30670166015625, 80.54126739501953],
            "min": [
                -113.20832824707031, 163.39682006835938, -80.54126739501953
            ],
            "type": "VEC3"
        },
        {
            "bufferView": 2,
            "byteOffset": 60876,
            "componentType": 5126,
            "count": 931,
            "max": [1.0, 1.0, 1.0],
            "min": [-1.0, -1.0, -1.0],
            "type": "VEC3"
        },
        {
            "bufferView": 3,
            "byteOffset": 33136,
            "componentType": 5126,
            "count": 931,
            "max": [1.0, 1.0, 1.0, 1.0],
            "min": [-1.0, -1.0, -1.0, 1.0],
            "type": "VEC4"
        },
        {
            "bufferView": 1,
            "byteOffset": 49704,
            "componentType": 5126,
            "count": 931,
            "max": [0.9966999888420105, 0.9977306127548218],
            "min": [0.10506206005811691, 0.001953125],
            "type": "VEC2"
        },
        {
            "bufferView": 1,
            "byteOffset": 57152,
            "componentType": 5126,
            "count": 931,
            "max": [0.9966999888420105, 0.9977306127548218],
            "min": [0.10506206005811691, 0.001953125],
            "type": "VEC2"
        },
        {
            "bufferView": 1,
            "byteOffset": 64600,
            "componentType": 5126,
            "count": 931,
            "max": [0.9966999888420105, 0.9977306127548218],
            "min": [0.10506206005811691, 0.001953125],
            "type": "VEC2"
        },
        {
            "bufferView": 0,
            "byteOffset": 32688,
            "componentType": 5125,
            "count": 1476,
            "type": "SCALAR"
        },
        {
            "bufferView": 2,
            "byteOffset": 72048,
            "componentType": 5126,
            "count": 130,
            "max": [76.05226135253906, 332.6136169433594, 51.05317687988281],
            "min": [-26.054100036621094, 325.3172302246094, -51.05317687988281],
            "type": "VEC3"
        },
        {
            "bufferView": 2,
            "byteOffset": 73608,
            "componentType": 5126,
            "count": 130,
            "max": [0.7278809547424316, 0.6857142448425293, 0.7278809547424316],
            "min": [
                -0.7278809547424316, -0.6857142448425293, -0.7278809547424316
            ],
            "type": "VEC3"
        },
        {
            "bufferView": 3,
            "byteOffset": 48032,
            "componentType": 5126,
            "count": 130,
            "max": [
                0.9389273524284363, 0.7204928994178772, 0.6857036352157593, 1.0
            ],
            "min": [
                -0.6857035756111145, -0.7278872728347778, -0.9389228224754333,
                1.0
            ],
            "type": "VEC4"
        },
        {
            "bufferView": 1,
            "byteOffset": 72048,
            "componentType": 5126,
            "count": 130,
            "max": [0.8112844228744507, 0.9721421599388123],
            "min": [0.12114596366882324, 0.0019531329162418842],
            "type": "VEC2"
        },
        {
            "bufferView": 1,
            "byteOffset": 73088,
            "componentType": 5126,
            "count": 130,
            "max": [0.8112844228744507, 0.9721421599388123],
            "min": [0.12114596366882324, 0.0019531329162418842],
            "type": "VEC2"
        },
        {
            "bufferView": 1,
            "byteOffset": 74128,
            "componentType": 5126,
            "count": 130,
            "max": [0.8112844228744507, 0.9721421599388123],
            "min": [0.12114596366882324, 0.0019531329162418842],
            "type": "VEC2"
        },
        {
            "bufferView": 0,
            "byteOffset": 38592,
            "componentType": 5125,
            "count": 372,
            "type": "SCALAR"
        },
        {
            "bufferView": 2,
            "byteOffset": 75168,
            "componentType": 5126,
            "count": 724,
            "max": [15.74530029296875, 44.04617691040039, 15.76201343536377],
            "min": [
                -15.74530029296875, 0.44349798560142517, -15.76201343536377
            ],
            "type": "VEC3"
        },
        {
            "bufferView": 2,
            "byteOffset": 83856,
            "componentType": 5126,
            "count": 724,
            "max": [0.9999997615814209, 0.7497586011886597, 0.9999998807907104],
            "min": [
                -0.9999997615814209, -0.9939154982566833, -0.9999998807907104
            ],
            "type": "VEC3"
        },
        {
            "bufferView": 3,
            "byteOffset": 50112,
            "componentType": 5126,
            "count": 724,
            "max": [
                0.9939123392105103, 0.9999204277992249, 0.9927608966827393, 1.0
            ],
            "min": [
                -0.9963025450706482, -0.9999704360961914, -0.9927085638046265,
                1.0
            ],
            "type": "VEC4"
        },
        {
            "bufferView": 1,
            "byteOffset": 75168,
            "componentType": 5126,
            "count": 724,
            "max": [0.9785978198051453, 0.998046875],
            "min": [0.05054335296154022, 0.02148124948143959],
            "type": "VEC2"
        },
        {
            "bufferView": 1,
            "byteOffset": 80960,
            "componentType": 5126,
            "count": 724,
            "max": [0.9785978198051453, 0.998046875],
            "min": [0.05054335296154022, 0.02148124948143959],
            "type": "VEC2"
        },
        {
            "bufferView": 1,
            "byteOffset": 86752,
            "componentType": 5126,
            "count": 724,
            "max": [0.9785978198051453, 0.998046875],
            "min": [0.05054335296154022, 0.02148124948143959],
            "type": "VEC2"
        },
        {
            "bufferView": 0,
            "byteOffset": 40080,
            "componentType": 5125,
            "count": 3060,
            "type": "SCALAR"
        }
    ],
    "asset": {
        "extras": {
            "author": "Atmo (https://sketchfab.com/atmo_gd)",
            "license": "CC-BY-4.0 (http://creativecommons.org/licenses/by/4.0/)",
            "source": "https://sketchfab.com/3d-models/thors-hammer-mjolnir-low-poly-b39abd20ad9a47a59883d2dc9c18d1cf",
            "title": "Thors Hammer - Mjolnir - LOW POLY"
        },
        "generator": "Sketchfab-12.68.0",
        "version": "2.0"
    },
    "bufferViews": [
        {
            "buffer": 0,
            "byteLength": 52320,
            "name": "floatBufferViews",
            "target": 34963
        },
        {
            "buffer": 0,
            "byteLength": 92544,
            "byteOffset": 52320,
            "byteStride": 8,
            "name": "floatBufferViews",
            "target": 34962
        },
        {
            "buffer": 0,
            "byteLength": 92544,
            "byteOffset": 144864,
            "byteStride": 12,
            "name": "floatBufferViews",
            "target": 34962
        },
        {
            "buffer": 0,
            "byteLength": 61696,
            "byteOffset": 237408,
            "byteStride": 16,
            "name": "floatBufferViews",
            "target": 34962
        }
    ],
    "buffers": [
        {
            "byteLength": 299104,
            "uri": "scene.bin"
        }
    ],
    "images": [
        {
            "uri": "textures/Hammer_LP_baseColor.png"
        },
        {
            "uri": "textures/Hammer_LP_metallicRoughness.png"
        },
        {
            "uri": "textures/Hammer_LP_emissive.png"
        },
        {
            "uri": "textures/Hammer_LP_normal.png"
        }
    ],
    "materials": [
        {
            "doubleSided": true,
            "emissiveFactor": [1.0, 1.0, 1.0],
            "emissiveTexture": {
                "index": 2
            },
            "name": "Hammer_LP",
            "normalTexture": {
                "index": 3
            },
            "pbrMetallicRoughness": {
                "baseColorTexture": {
                    "index": 0
                },
                "metallicRoughnessTexture": {
                    "index": 1
                }
            }
        }
    ],
    "meshes": [
        {
            "name": "HammerBand_LP_Hammer_LP_0",
            "primitives": [
                {
                    "attributes": {
                        "NORMAL": 1,
                        "POSITION": 0,
                        "TANGENT": 2,
                        "TEXCOORD_0": 3,
                        "TEXCOORD_1": 4,
                        "TEXCOORD_2": 5
                    },
                    "indices": 6,
                    "material": 0,
                    "mode": 4
                }
            ]
        },
        {
            "name": "HammerHandle_LP_Hammer_LP_0",
            "primitives": [
                {
                    "attributes": {
                        "NORMAL": 8,
                        "POSITION": 7,
                        "TANGENT": 9,
                        "TEXCOORD_0": 10,
                        "TEXCOORD_1": 11,
                        "TEXCOORD_2": 12
                    },
                    "indices": 13,
                    "material": 0,
                    "mode": 4
                }
            ]
        },
        {
            "name": "HammerHead_LP_Hammer_LP_0",
            "primitives": [
                {
                    "attributes": {
                        "NORMAL": 15,
                        "POSITION": 14,
                        "TANGENT": 16,
                        "TEXCOORD_0": 17,
                        "TEXCOORD_1": 18,
                        "TEXCOORD_2": 19
                    },
                    "indices": 20,
                    "material": 0,
                    "mode": 4
                }
            ]
        },
        {
            "name": "HammerHeadTop_LP_Hammer_LP_0",
            "primitives": [
                {
                    "attributes": {
                        "NORMAL": 22,
                        "POSITION": 21,
                        "TANGENT": 23,
                        "TEXCOORD_0": 24,
                        "TEXCOORD_1": 25,
                        "TEXCOORD_2": 26
                    },
                    "indices": 27,
                    "material": 0,
                    "mode": 4
                }
            ]
        },
        {
            "name": "HammerKnob_LP_Hammer_LP_0",
            "primitives": [
                {
                    "attributes": {
                        "NORMAL": 29,
                        "POSITION": 28,
                        "TANGENT": 30,
                        "TEXCOORD_0": 31,
                        "TEXCOORD_1": 32,
                        "TEXCOORD_2": 33
                    },
                    "indices": 34,
                    "material": 0,
                    "mode": 4
                }
            ]
        }
    ],
    "nodes": [
        {
            "children": [1],
            "matrix": [
                1.0, 0.0, 0.0, 0.0, 0.0, 2.220446049250313e-16, -1.0, 0.0, 0.0,
                1.0, 2.220446049250313e-16, 0.0, 0.0, 0.0, 0.0, 1.0
            ],
            "name": "Sketchfab_model"
        },
        {
            "children": [2],
            "matrix": [
                0.009999999776482582, 0.0, 0.0, 0.0, 0.0, 0.0,
                0.009999999776482582, 0.0, 0.0, -0.009999999776482582, 0.0, 0.0,
                0.0, 0.0, 0.0, 1.0
            ],
            "name": "c9e0c3ee7fbc425585dabf06f1e805d8.fbx"
        },
        {
            "children": [3],
            "name": "RootNode"
        },
        {
            "children": [4, 6, 8, 10, 12],
            "name": "Hammer_LP"
        },
        {
            "children": [5],
            "matrix": [
                1.0, 0.0, 0.0, 0.0, 0.0, 1.0, 0.0, 0.0, 0.0, 0.0, 1.0, 0.0,
                10.373680114746094, -215.20285034179688, 7.624985300935805e-7,
                1.0
            ],
            "name": "HammerBand_LP"
        },
        {
            "mesh": 0,
            "name": "HammerBand_LP_Hammer_LP_0"
        },
        {
            "children": [7],
            "matrix": [
                1.0, 0.0, 0.0, 0.0, 0.0, 1.0, 0.0, 0.0, 0.0, 0.0, 1.0, 0.0, 0.0,
                -41.90351867675781, -5.293118192639668e-7, 1.0
            ],
            "name": "HammerHandle_LP"
        },
        {
            "mesh": 1,
            "name": "HammerHandle_LP_Hammer_LP_0"
        },
        {
            "children": [9],
            "matrix": [
                1.0, 0.0, 0.0, 0.0, 0.0, 1.0, 0.0, 0.0, 0.0, 0.0, 1.0, 0.0,
                -24.950416564941406, 0.0, 0.0, 1.0
            ],
            "name": "HammerHead_LP"
        },
        {
            "mesh": 2,
            "name": "HammerHead_LP_Hammer_LP_0"
        },
        {
            "children": [11],
            "matrix": [
                1.0, 0.0, 0.0, 0.0, 0.0, 1.0, 0.0, 0.0, 0.0, 0.0, 1.0, 0.0,
                -24.950416564941406, 0.0, 0.0, 1.0
            ],
            "name": "HammerHeadTop_LP"
        },
        {
            "mesh": 3,
            "name": "HammerHeadTop_LP_Hammer_LP_0"
        },
        {
            "children": [13],
            "matrix": [
                1.0, 0.0, 0.0, 0.0, 0.0, 1.0, 0.0, 0.0, 0.0, 0.0, 1.0, 0.0, 0.0,
                -196.78512573242188, -5.293118192639668e-7, 1.0
            ],
            "name": "HammerKnob_LP"
        },
        {
            "mesh": 4,
            "name": "HammerKnob_LP_Hammer_LP_0"
        }
    ],
    "samplers": [
        {
            "magFilter": 9729,
            "minFilter": 9987,
            "wrapS": 10497,
            "wrapT": 10497
        }
    ],
    "scene": 0,
    "scenes": [
        {
            "name": "Sketchfab_Scene",
            "nodes": [0]
        }
    ],
    "textures": [
        {
            "sampler": 0,
            "source": 0
        },
        {
            "sampler": 0,
            "source": 1
        },
        {
            "sampler": 0,
            "source": 2
        },
        {
            "sampler": 0,
            "source": 3
        }
    ]
}
